<svg width="56" height="32" viewBox="0 0 56 32" fill="none" xmlns="http://www.w3.org/2000/svg">
<path fill-rule="evenodd" clip-rule="evenodd" d="M45.8439 18.6666H35.6866L33.5039 10.6666H49.8439L45.8439 18.6666ZM52.1081 9.264C51.6187 8.472 50.7707 8 49.8401 8H32.7734L31.9507 4.98267C31.7921 4.40267 31.2654 4 30.6641 4H27.9974C27.2601 4 26.6641 4.59733 26.6641 5.33333C26.6641 6.06933 27.2601 6.66667 27.9974 6.66667H29.6454L33.3774 20.3507C33.5361 20.9307 34.0627 21.3333 34.6641 21.3333H46.6641C47.1694 21.3333 47.6307 21.048 47.8574 20.596L52.2254 11.8587C52.6427 11.0253 52.5974 10.056 52.1081 9.264ZM34 24C32.896 24 32 24.8947 32 26C32 27.1053 32.896 28 34 28C35.104 28 36 27.1053 36 26C36 24.8947 35.104 24 34 24ZM45.332 26C45.332 24.8947 46.228 24 47.332 24C48.436 24 49.332 24.8947 49.332 26C49.332 27.1053 48.436 28 47.332 28C46.228 28 45.332 27.1053 45.332 26Z" fill="white"/>
<path fill-rule="evenodd" clip-rule="evenodd" d="M19 15H13V9C13 8.447 12.552 8 12 8C11.448 8 11 8.447 11 9V15H5C4.448 15 4 15.447 4 16C4 16.553 4.448 17 5 17H11V23C11 23.553 11.448 24 12 24C12.552 24 13 23.553 13 23V17H19C19.552 17 20 16.553 20 16C20 15.447 19.552 15 19 15Z" fill="white"/>
</svg>
