<svg width="84" height="84" viewBox="0 0 84 84" fill="none" xmlns="http://www.w3.org/2000/svg">
<g id=" arrow-circle-up">
<path id="Icon" fill-rule="evenodd" clip-rule="evenodd" d="M44.4757 25.5272C44.1572 25.2052 43.7722 24.9497 43.3487 24.7747C42.9252 24.5962 42.4737 24.5052 42.0187 24.5052C42.0117 24.5052 42.0047 24.5017 41.9977 24.5017C41.8717 24.5017 41.7667 24.5577 41.6407 24.5717C41.3187 24.6067 40.9967 24.6417 40.6922 24.7642C40.4507 24.8622 40.2547 25.0267 40.0412 25.1737C39.8907 25.2787 39.7192 25.3382 39.5827 25.4677L29.0827 35.4847C27.6862 36.8217 27.6337 39.0337 28.9672 40.4337C30.3042 41.8337 32.5162 41.8827 33.9162 40.5492L38.4977 36.1777V56.0017C38.4977 57.9337 40.0657 59.5017 41.9977 59.5017C43.9332 59.5017 45.4977 57.9337 45.4977 56.0017V36.4507L50.0232 40.9762C50.7092 41.6587 51.6052 42.0017 52.4977 42.0017C53.3937 42.0017 54.2897 41.6587 54.9757 40.9762C56.3407 39.6077 56.3407 37.3922 54.9757 36.0272L44.4757 25.5272ZM42.0003 70C26.5618 70 14.0003 57.4385 14.0003 42C14.0003 26.5615 26.5618 14 42.0003 14C57.4388 14 70.0003 26.5615 70.0003 42C70.0003 57.4385 57.4388 70 42.0003 70ZM42 7C22.701 7 7 22.701 7 42C7 61.299 22.701 77 42 77C61.299 77 77 61.299 77 42C77 22.701 61.299 7 42 7Z" fill="#E45C25"/>
</g>
</svg>
