<svg width="30" height="30" viewBox="0 0 30 30" fill="none" xmlns="http://www.w3.org/2000/svg">
<path fill-rule="evenodd" clip-rule="evenodd" d="M15 2.49988C8.1075 2.49988 2.5 8.10738 2.5 14.9999C2.5 21.8924 8.1075 27.4999 15 27.4999C21.8925 27.4999 27.5 21.8924 27.5 14.9999C27.5 8.10738 21.8925 2.49988 15 2.49988Z" fill="#E45C25"/>
<path fill-rule="evenodd" clip-rule="evenodd" d="M18.3838 16.6161C18.8726 17.1049 18.8726 17.8949 18.3838 18.3836C18.1401 18.6274 17.8201 18.7499 17.5001 18.7499C17.1801 18.7499 16.8601 18.6274 16.6163 18.3836L15.0001 16.7674L13.3838 18.3836C13.1401 18.6274 12.8201 18.7499 12.5001 18.7499C12.1801 18.7499 11.8601 18.6274 11.6163 18.3836C11.1276 17.8949 11.1276 17.1049 11.6163 16.6161L13.2326 14.9999L11.6163 13.3836C11.1276 12.8949 11.1276 12.1049 11.6163 11.6161C12.1051 11.1274 12.8951 11.1274 13.3838 11.6161L15.0001 13.2324L16.6163 11.6161C17.1051 11.1274 17.8951 11.1274 18.3838 11.6161C18.8726 12.1049 18.8726 12.8949 18.3838 13.3836L16.7676 14.9999L18.3838 16.6161ZM15 2.49988C8.1075 2.49988 2.5 8.10738 2.5 14.9999C2.5 21.8924 8.1075 27.4999 15 27.4999C21.8925 27.4999 27.5 21.8924 27.5 14.9999C27.5 8.10738 21.8925 2.49988 15 2.49988Z" fill="white"/>
</svg>
