<svg width="30" height="30" viewBox="0 0 30 30" fill="none" xmlns="http://www.w3.org/2000/svg">
<g id=" minus-circle">
<g id="Group 1200">
<path id="Path" fill-rule="evenodd" clip-rule="evenodd" d="M15 2.5C8.1075 2.5 2.5 8.1075 2.5 15C2.5 21.8925 8.1075 27.5 15 27.5C21.8925 27.5 27.5 21.8925 27.5 15C27.5 8.1075 21.8925 2.5 15 2.5Z" fill="#E45C25"/>
<path id="Icon" fill-rule="evenodd" clip-rule="evenodd" d="M18.75 16.25H11.25C10.5625 16.25 10 15.6875 10 15C10 14.3125 10.5625 13.75 11.25 13.75H18.75C19.4375 13.75 20 14.3125 20 15C20 15.6875 19.4375 16.25 18.75 16.25ZM15 2.5C8.1075 2.5 2.5 8.1075 2.5 15C2.5 21.8925 8.1075 27.5 15 27.5C21.8925 27.5 27.5 21.8925 27.5 15C27.5 8.1075 21.8925 2.5 15 2.5Z" fill="white"/>
</g>
</g>
</svg>
