<svg width="80" height="80" viewBox="0 0 80 80" fill="none" xmlns="http://www.w3.org/2000/svg">
<circle cx="40" cy="40" r="40" fill="white"/>
<path fill-rule="evenodd" clip-rule="evenodd" d="M47.3029 43.3333H34.6063L31.8779 33.3333H52.3029L47.3029 43.3333ZM55.1331 31.58C54.5215 30.59 53.4615 30 52.2981 30H30.9648L29.9365 26.2283C29.7381 25.5033 29.0798 25 28.3281 25H24.9948C24.0731 25 23.3281 25.7467 23.3281 26.6667C23.3281 27.5867 24.0731 28.3333 24.9948 28.3333H27.0548L31.7198 45.4383C31.9181 46.1633 32.5765 46.6667 33.3281 46.6667H48.3281C48.9598 46.6667 49.5365 46.31 49.8198 45.745L55.2798 34.8233C55.8015 33.7817 55.7448 32.57 55.1331 31.58ZM32.498 50C31.118 50 29.998 51.1183 29.998 52.5C29.998 53.8817 31.118 55 32.498 55C33.878 55 34.998 53.8817 34.998 52.5C34.998 51.1183 33.878 50 32.498 50ZM46.6631 52.5C46.6631 51.1183 47.7831 50 49.1631 50C50.5431 50 51.6631 51.1183 51.6631 52.5C51.6631 53.8817 50.5431 55 49.1631 55C47.7831 55 46.6631 53.8817 46.6631 52.5Z" fill="#E45C25"/>
</svg>
